<svg width="1440" height="1800" viewBox="0 0 1440 1800" fill="none" xmlns="http://www.w3.org/2000/svg">
  <rect width="1440" height="1800" fill="#F6F8FB"/>
  <rect x="120" y="72" width="1200" height="84" rx="20" fill="#FFFFFF" stroke="#D7DFEA"/>
  <text x="168" y="124" fill="#0F172A" font-family="Verdana" font-size="28" font-weight="700">AcmeOps</text>
  <rect x="994" y="96" width="140" height="40" rx="12" fill="#E8EEF8"/>
  <text x="1030" y="122" fill="#334155" font-family="Verdana" font-size="16" font-weight="600">Sign in</text>
  <rect x="1154" y="96" width="126" height="40" rx="12" fill="#0B5FFF"/>
  <text x="1180" y="122" fill="#FFFFFF" font-family="Verdana" font-size="16" font-weight="700">Start free</text>

  <rect x="120" y="196" width="1200" height="580" rx="28" fill="url(#heroGradient)"/>
  <rect x="184" y="250" width="216" height="34" rx="17" fill="#DCE8FF"/>
  <text x="204" y="273" fill="#0B5FFF" font-family="Verdana" font-size="14" font-weight="700">Ops Command Center</text>
  <text x="184" y="350" fill="#FFFFFF" font-family="Verdana" font-size="64" font-weight="700">Ship faster</text>
  <text x="184" y="424" fill="#FFFFFF" font-family="Verdana" font-size="64" font-weight="700">with reliable</text>
  <text x="184" y="498" fill="#FFFFFF" font-family="Verdana" font-size="64" font-weight="700">release quality.</text>
  <text x="184" y="560" fill="#D1E4FF" font-family="Verdana" font-size="22" font-weight="400">Monitor test quality, release health, and user impact in one timeline.</text>
  <rect x="184" y="606" width="192" height="52" rx="14" fill="#FFFFFF"/>
  <text x="226" y="639" fill="#0B5FFF" font-family="Verdana" font-size="18" font-weight="700">Start free</text>
  <rect x="390" y="606" width="192" height="52" rx="14" fill="#0B5FFF" stroke="#D1E4FF"/>
  <text x="435" y="639" fill="#FFFFFF" font-family="Verdana" font-size="18" font-weight="600">Book demo</text>

  <rect x="770" y="258" width="488" height="440" rx="24" fill="#FFFFFF"/>
  <text x="806" y="304" fill="#1E293B" font-family="Verdana" font-size="20" font-weight="700">Release quality score</text>
  <rect x="806" y="330" width="416" height="10" rx="5" fill="#E2E8F0"/>
  <rect x="806" y="330" width="332" height="10" rx="5" fill="#0B5FFF"/>
  <text x="1176" y="304" fill="#0B5FFF" font-family="Verdana" font-size="20" font-weight="700">84%</text>
  <rect x="806" y="372" width="416" height="58" rx="14" fill="#F8FAFC"/>
  <text x="826" y="406" fill="#0F172A" font-family="Verdana" font-size="18" font-weight="600">Regression risk</text>
  <text x="1146" y="406" fill="#16A34A" font-family="Verdana" font-size="18" font-weight="700">Low</text>
  <rect x="806" y="444" width="416" height="58" rx="14" fill="#F8FAFC"/>
  <text x="826" y="478" fill="#0F172A" font-family="Verdana" font-size="18" font-weight="600">Build health</text>
  <text x="1117" y="478" fill="#EA580C" font-family="Verdana" font-size="18" font-weight="700">Needs review</text>
  <rect x="806" y="516" width="416" height="58" rx="14" fill="#F8FAFC"/>
  <text x="826" y="550" fill="#0F172A" font-family="Verdana" font-size="18" font-weight="600">User impact</text>
  <text x="1132" y="550" fill="#0EA5E9" font-family="Verdana" font-size="18" font-weight="700">Moderate</text>

  <text x="120" y="868" fill="#0F172A" font-family="Verdana" font-size="46" font-weight="700">Everything your release team needs</text>
  <text x="120" y="914" fill="#475569" font-family="Verdana" font-size="20" font-weight="400">A practical dashboard for engineering managers and QA leads.</text>

  <rect x="120" y="954" width="380" height="264" rx="20" fill="#FFFFFF" stroke="#D7DFEA"/>
  <text x="152" y="1008" fill="#0F172A" font-family="Verdana" font-size="28" font-weight="700">Issue Radar</text>
  <text x="152" y="1044" fill="#475569" font-family="Verdana" font-size="18" font-weight="400">Surface flaky tests and unstable builds before release day.</text>

  <rect x="530" y="954" width="380" height="264" rx="20" fill="#FFFFFF" stroke="#D7DFEA"/>
  <text x="562" y="1008" fill="#0F172A" font-family="Verdana" font-size="28" font-weight="700">Change Timeline</text>
  <text x="562" y="1044" fill="#475569" font-family="Verdana" font-size="18" font-weight="400">Track design, code, and QA changes in one chronological feed.</text>

  <rect x="940" y="954" width="380" height="264" rx="20" fill="#FFFFFF" stroke="#D7DFEA"/>
  <text x="972" y="1008" fill="#0F172A" font-family="Verdana" font-size="28" font-weight="700">Audit Reports</text>
  <text x="972" y="1044" fill="#475569" font-family="Verdana" font-size="18" font-weight="400">Generate shareable reports for product and engineering stakeholders.</text>

  <rect x="120" y="1272" width="1200" height="360" rx="28" fill="#FFFFFF" stroke="#D7DFEA"/>
  <text x="170" y="1340" fill="#0F172A" font-family="Verdana" font-size="42" font-weight="700">Simple pricing</text>
  <text x="170" y="1382" fill="#475569" font-family="Verdana" font-size="20" font-weight="400">Start with one team and scale confidently.</text>
  <text x="170" y="1478" fill="#0F172A" font-family="Verdana" font-size="56" font-weight="700">$49</text>
  <text x="300" y="1478" fill="#64748B" font-family="Verdana" font-size="24" font-weight="500">per user/month</text>
  <rect x="170" y="1516" width="218" height="56" rx="14" fill="#0B5FFF"/>
  <text x="213" y="1550" fill="#FFFFFF" font-family="Verdana" font-size="20" font-weight="700">Get started</text>

  <defs>
    <linearGradient id="heroGradient" x1="120" y1="196" x2="1320" y2="776" gradientUnits="userSpaceOnUse">
      <stop stop-color="#0B5FFF"/>
      <stop offset="1" stop-color="#0A2D88"/>
    </linearGradient>
  </defs>
</svg>
